mastitorrents.com
 
http://mastitorrents.com/forums/index.php
 
http://thepiratebay.org/user/HDvideos/0/7

[18+] Kunwara Paying Guest (2007) Hindi MTR@Mastitorrents

Video
Format : AVC
Format/Info : Advanced Video Codec
Format profile : Baseline@L3.0
Format settings, CABAC : No
Format settings, ReFrames : 1 frame
Codec ID : 7
Duration : 1h 26mn
Bit rate : 287 Kbps
Width : 496 pixels
Height : 288 pixels
Display aspect ratio : 4:3
Frame rate mode : Constant
Frame rate : 23.976 fps
Color space : YUV
Chroma subsampling : 4:2:0
Bit depth : 8 bits
Scan type : Progressive
Bits/(Pixel*Frame) : 0.084
Stream size : 177 MiB (80%)
Audio
Format : AAC
Format/Info : Advanced Audio Codec
Format profile : LC
Codec ID : 10
Duration : 1h 26mn
Bit rate : 64.3 Kbps
Channel(s) : 2 channels
Channel positions : Front: L R
Sampling rate : 22.05 KHz
Compression mode : Lossy
Stream size : 39.7 MiB (18%)